<?xml version="1.0" encoding="UTF-8"?>
<svg width="1200" height="1200" viewBox="0 0 1200 1200" fill="none" xmlns="http://www.w3.org/2000/svg">
  <path d="M600 0C268.6 0 0 268.6 0 600s268.6 600 600 600 600-268.6 600-600S931.4 0 600 0zm0 1000c-220.9 0-400-179.1-400-400S379.1 200 600 200s400 179.1 400 400-179.1 400-400 400z" fill="white" fill-opacity="0.1"/>
  <path d="M800 400c0 110.5-89.5 200-200 200s-200-89.5-200-200 89.5-200 200-200 200 89.5 200 200zm-300 0c0 55.2 44.8 100 100 100s100-44.8 100-100-44.8-100-100-100-100 44.8-100 100z" fill="white" fill-opacity="0.1"/>
</svg>
